<?xml version="1.0" encoding="utf-8"?>
<!-- Generator: Adobe Illustrator 21.0.2, SVG Export Plug-In . SVG Version: 6.00 Build 0)  -->
<svg version="1.1" id="圖層_1" xmlns="http://www.w3.org/2000/svg" xmlns:xlink="http://www.w3.org/1999/xlink" x="0px" y="0px"
	 viewBox="0 0 54 32" style="enable-background:new 0 0 54 32;" xml:space="preserve">
<g>
	<g>
		<path d="M36.1,22.8c-0.4,8.6-11.4,8.6-11.9,0c-0.2-3.6,2.7-6.5,5.9-6.7C33.6,15.9,35.9,19.4,36.1,22.8c0.1,1.7,3,1.7,2.9,0
			c-0.6-11.9-17.1-11.9-17.7,0c-0.3,5.3,4.3,9,8.8,9.2c4.9,0.3,8.6-4.3,8.8-9.2C39.1,21.1,36.2,21.1,36.1,22.8z"/>
	</g>
	<g>
		<path d="M6.4,16.7c7.7-2.6,12.3,9,5,12.4C4.1,32.5-0.9,20.1,6.4,16.7c1.7-0.8,0.8-3.2-0.9-2.4c-4.6,2.2-6.9,6.9-5.2,12
			c1.7,5.1,7.6,6.6,12,5.1c4.9-1.6,6.8-7.3,5.2-12c-1.7-5.1-7.6-6.6-12-5.1C3.7,14.9,4.6,17.3,6.4,16.7z"/>
	</g>
	<g>
		<path d="M17,22.9c1.4,0,2.9,0,4.3,0c0.7,0,1.6-0.5,1.6-1.3c0-0.8-0.9-1.3-1.6-1.3c-1.4,0-2.9,0-4.3,0c-0.7,0-1.6,0.5-1.6,1.3
			C15.5,22.4,16.3,22.9,17,22.9L17,22.9z"/>
	</g>
	<g>
		<path d="M6,17c6.3-5.3,10.4-8.8,16.7-14.1C21.7,2.6,20.8,2.3,20,2c0,2.1,0,2.3,0,4.5c0,1.7,3.1,1.4,3.1-0.3c0-2.1,0-2,0-4.2
			c0-1.3-2.1-2-2.9-1.3c-1.4,1.2-2.9,2.4-4.3,3.7C11,8.5,8.6,11.1,3.8,15.2C2.3,16.5,4.7,18,6,17L6,17z"/>
	</g>
	<g>
		<path d="M37.7,18.7c5.8-4.9,9.9-9.7,15.7-14.6c-0.9-0.3-1.7-1.1-2.5-1.4c0,2.1-0.4,3.1,0,5.2C51.2,9.6,54,9,54,6.6
			c0-2.1,0-1.8,0-3.9c0-1.3-1.9-1.6-2.7-0.9c-4.5,3.8-7.8,7.5-12.2,11.3c-1.3,1.1-2.6,2.2-4,3.4c-1.5,1.3,1.4,2.9,2.7,1.8L37.7,18.7
			z"/>
	</g>
</g>
</svg>
