<?xml version="1.0" encoding="utf-8"?>
<!-- Generator: Adobe Illustrator 21.0.2, SVG Export Plug-In . SVG Version: 6.00 Build 0)  -->
<svg version="1.1" id="圖層_1" xmlns="http://www.w3.org/2000/svg" xmlns:xlink="http://www.w3.org/1999/xlink" x="0px" y="0px"
	 viewBox="0 0 100 65" style="enable-background:new 0 0 100 65;" xml:space="preserve">
<style type="text/css">
	.st0{fill-rule:evenodd;clip-rule:evenodd;fill:#231F20;}
	.st1{fill:#231F20;}
	.st2{stroke:#000000;stroke-width:0.5;stroke-miterlimit:10;}
</style>
<g>
	<g>
		<path class="st0" d="M100,28.4c-0.1-0.5-1.6-0.6-3.1-0.6c-3.7-0.1-2.6-0.1-6.3-0.1c-3.2,0-6.5,0.1-9.7,0.2c-4,0-8.1,0-12.1,0
			c-0.8,0-1.5,0-2.3,0c-2.3,0.1-3.6,0.3-5.9,0.4c-1.7,0.1-2.5-0.3-2.2,1.1c0.1,0.5,1.2,1.4,1.6,1.4c1.2,0.2,2-0.1,3.3,0
			c0.8,0.1,4.7,0,5.5-0.1c5.6-0.3,7.8,0.2,13.4,0c2.9-0.1,6.5-0.1,9.4-0.2c4.7,0.2,2.7,0.5,6.9,0.1c1.3-0.1,1.8-0.7,1.6-1.6
			C100.1,28.8,100.1,28.6,100,28.4z"/>
		<path class="st1" d="M0.7,6.6c0.5,5.9,0,12.8,6.2,12.3c8.2-0.7,7.7-8.7,7.4-15.8c0-1.3-3.2-1.1-3,0.2c0.4,5.5,0.3,33.6,0.2,39.1
			c-0.1,4.4-0.3,8.2-1.3,12.5c-0.2,0.6-0.4,1.2-0.6,1.8c-0.3,0.9-1.5,2.3-2.8,2c-1.6-0.4-4.3-8.4-3.9-15.3
			c0.6-12,9.7-18.7,16.1-16.8c4.7,1.4,5.5-1,3.9-1.7C11.7,20.4,1.7,29.4,0.3,38.8c-1.4,9.6,0,19.3,3.2,21.8c1.4,1.1,4.7,1.7,6.1,0.6
			c4.6-3.4,4.7-12.7,4.7-17.9c0-6.2,0.1-33.7,0-40c-0.9,0.1-2.1,0.1-3,0.2c0.3,1.2,0.2,1.7,0.2,3.9c0,1.2-0.1,1.9-0.1,3.1
			c0.1,2.7-3.6,7.8-6.4,4.2C3.4,12.7,4,8.5,3.7,3.9C3.6,2.8,2.6,2.1,1.9,2.2c-0.6,0-1.5,0.7-1.4,1.9L0.7,6.6z"/>
		<g>
			<path class="st1" d="M39.7,10c-0.3-2.2-1.1-3.9-3.5-4.4c-5.2-1-6.5,3.9-6.6,6.5c-0.2,3,2.7,6.5,5.6,6.6c4.5,0.2,5-5.2,4.5-8.5
				c-0.2-1.5-3-1.3-2.8,0.2c0.2,1.5,0.6,5.6-1.7,5.7c-1.3,0.1-2.6-1.9-2.6-3.3c0-1.5,0.3-1.9,1-3.1c0.2-0.4,0.8-0.9,1.3-0.9
				c0.3,0,0.9,0,1.2,0.2c0.3,0.2,0.8,0.6,0.9,1.5C37.2,12.4,39.9,11.5,39.7,10z"/>
		</g>
		<g>
			<path class="st1" d="M37.1,15.5c-0.3,4.3,0.1,7.4-0.4,11.8c-0.1,1.3-0.7,4.8-2.4,5.9c-1,0.6-1.6,0.9-2.5-1.1
				c-0.8-1.8-0.6-3.3,0.1-5.1c1.5-4,11.6-3.3,15.1-2.1c2.9,1.1,3-1.1,1.4-1.9c-3.1-1.5-8.6-2.6-12.9-1.9c-3.3,0.6-5.7,3.3-6.6,6.1
				c-1.1,3.3,0.3,10.2,4.9,9.6c7.3-0.8,5.8-17,5.9-23.6c0-1.5-2.6-1-2.6,0.5L37.1,15.5z"/>
		</g>
		<g>
			<path class="st1" d="M17.4,15.4c1.3,3.6,5.4,4.1,8,2.6c2.9-1.8,3.1-6.2,1.8-9c-1.4-3.2-5.5-4.1-8.1-2c-2.8,2.2-2.7,6-1.4,8.9
				c0.7,1.5,2.7,0.1,2.2-1.5c-0.4-1.4-0.2-2.1-0.1-3.1c0.2-1.5,2.2-3.2,3.7-2.5c2,1,2.1,3.3,1.7,5c-0.6,2.4-3.9,3.4-5.4,0.6
				C18.9,12.8,16.9,13.7,17.4,15.4L17.4,15.4z"/>
		</g>
		<g>
			<path class="st1" d="M44.6,7.4c2-0.7,3.6,0.1,4.3,1.8c0.6,1.5,0.6,3.5,0.2,5.1c-0.6,2.4-4.7,2.7-4.2-0.3c0.3-2,3-1.5,4.4-1.5
				c1.8,0.1,1.8-2.7,0-2.8c-3.1-0.1-7.2,0.4-7.3,4.5c-0.1,4,3.9,5.8,7.3,4.1c3.2-1.7,3.3-6.3,2.4-9.2c-1.4-4.2-5-5.3-8.7-4
				c-1.7,0.6-0.8,3.2,0.9,2.7L44.6,7.4z"/>
		</g>
		<g>
			<path class="st1" d="M74.3,9.2c2-0.6,4.8-0.3,5.1,2.3c0.2,1.5,0.4,3.2-0.2,4.6c-1,2-4.8,2.2-3.3-0.5c0.8-1.5,2.7-1.9,4.3-2.2
				c1.8-0.3,1-3-0.7-2.7c-3.2,0.5-6.3,2.3-6.8,5.8c-0.6,4,4.8,4.7,7.3,3c2.9-2,2.6-5.5,2.3-8.5c-0.5-4.3-5-5-8.6-3.9
				C71.8,7.6,72.6,9.7,74.3,9.2L74.3,9.2z"/>
		</g>
		<g>
			<path class="st1" d="M84.9,10c0,1.5,0.2,5.1,0.3,8.7c0,0.9,0.8,1.8,1.6,1.8c0.5,0,1.1-0.7,1.2-1.4c0.3-1.7,0.4-4.6,0.7-6.3
				c0.3-1.6,0.6-3.9,2.5-3.6c2.1,0.4,1.6,3.8,1.6,4.9c0,1.5,0.1,3,0,4.5c0,1.1,1.1,1.9,1.9,1.7c0.5-0.1,0.9-1,0.9-1.7
				c0-3.4,1.2-11-3.4-11.7c-5.9-1-6.1,7.6-6.8,11.3c0.9,0.1,1.8,0.2,2.7,0.4C87.9,15.1,88,11.5,88,7.9c0-1.8-2.4-1.9-2.8,0
				C85.2,7.9,84.9,8.6,84.9,10z"/>
		</g>
		<path class="st0" d="M77.8,0.4c-0.3-0.4-2-0.4-3-0.4c-1.3,0-3.8,0.1-5.1,0.1c-3.4,0-4.4,0-7.8,0c-1.9,0-3.6-0.2-5.5-0.1
			c-0.9,0-0.7,1.1-0.3,1.8c0.5,1,3,0.9,5.2,1c1.2,0,2.2-0.1,3.6,0c0,0.1,0.9,0,0.9,0.1c1.1,0,1.6-0.1,2.8-0.1c0.7,0.1,1.8,0,2.1,0
			c2.5,0.1,2.9,0,5.2-0.3c0.7-0.1,1.9-0.5,1.9-1.2C77.9,1,77.9,0.7,77.8,0.4z"/>
		<path class="st0" d="M65,4.5C64.9,8,64.8,14.7,65,18.3c0.1,1.6,0.1,2.4,0.6,3c0.4,0.5,1.4,0.7,1.7,0.2c0.4-0.8,0.4-2.5,0.5-3.4
			c0.3-2.1,0.2-9.2,0.3-11.3c0-2.8-0.1-2.3,0-5.1c0,0,0,0,0,0C66.9,1.8,66,1.8,65,1.9C65,4.2,65,3.1,65,4.5z"/>
	</g>
	<g>
		<g>
			<path class="st2" d="M82.9,56.4c-0.3,6.5-8.7,6.5-9.1,0c-0.1-2.8,2.1-5,4.5-5.1C81,51.1,82.8,53.9,82.9,56.4
				c0.1,1.3,2.3,1.3,2.2,0c-0.5-9.1-13.1-9.1-13.5,0c-0.2,4.1,3.3,6.9,6.8,7.1c3.7,0.2,6.6-3.3,6.8-7.1C85.2,55.1,83,55.1,82.9,56.4
				z"/>
		</g>
		<g>
			<path class="st2" d="M60.2,51.7c5.9-2,9.4,6.9,3.8,9.5C58.4,63.9,54.6,54.4,60.2,51.7c1.3-0.6,0.6-2.4-0.7-1.8
				c-3.6,1.7-5.3,5.3-4,9.2c1.3,3.9,5.8,5.1,9.2,3.9c3.7-1.3,5.2-5.6,4-9.2c-1.3-3.9-5.8-5.1-9.2-3.9C58.1,50.4,58.8,52.2,60.2,51.7
				z"/>
		</g>
		<g>
			<path class="st2" d="M68.3,56.5c1.1,0,2.2,0,3.3,0c0.5,0,1.2-0.4,1.2-1c0-0.6-0.7-1-1.2-1c-1.1,0-2.2,0-3.3,0
				c-0.5,0-1.2,0.4-1.2,1C67.1,56.1,67.8,56.5,68.3,56.5L68.3,56.5z"/>
		</g>
		<g>
			<path class="st2" d="M59.9,52c4.8-4.1,7.9-6.7,12.7-10.8c-0.7-0.2-1.4-0.5-2-0.7c0,1.6,0,1.8,0,3.4c0,1.3,2.4,1.1,2.4-0.2
				c0-1.6,0-1.6,0-3.2c0-1-1.6-1.5-2.2-1c-1.1,0.9-2.2,1.9-3.3,2.8c-3.7,3.2-5.6,5.1-9.3,8.3C57,51.6,58.9,52.8,59.9,52L59.9,52z"/>
		</g>
		<g>
			<path class="st2" d="M84.1,53.3c4.4-3.8,7.6-7.4,12-11.2c-0.7-0.2-1.3-0.8-1.9-1c0,1.6-0.3,2.4,0,4c0.2,1.3,2.4,0.8,2.4-1
				c0-1.6,0-1.3,0-3c0-1-1.4-1.2-2-0.7c-3.4,2.9-5.9,5.8-9.4,8.7c-1,0.9-2,1.7-3,2.6c-1.2,1,1.1,2.2,2.1,1.4L84.1,53.3z"/>
		</g>
	</g>
</g>
</svg>
