<?xml version="1.0" encoding="utf-8"?>
<!-- Generator: Adobe Illustrator 21.0.2, SVG Export Plug-In . SVG Version: 6.00 Build 0)  -->
<svg version="1.1" id="圖層_1" xmlns="http://www.w3.org/2000/svg" xmlns:xlink="http://www.w3.org/1999/xlink" x="0px" y="0px"
	 viewBox="0 0 100 62" style="enable-background:new 0 0 100 62;" xml:space="preserve">
<style type="text/css">
	.st0{fill-rule:evenodd;clip-rule:evenodd;fill:#231F20;}
	.st1{fill:#231F20;}
</style>
<g>
	<path class="st0" d="M100.3,28.8c-0.1-0.5-1.6-0.6-3.1-0.6c-3.7-0.1-2.6-0.1-6.3-0.1c-3.2,0-6.5,0.1-9.7,0.2c-4,0-8.1,0-12.1,0
		c-0.8,0-1.5,0-2.3,0c-2.3,0.1-3.6,0.3-5.9,0.4c-1.7,0.1-2.5-0.3-2.2,1.1c0.1,0.5,1.2,1.4,1.6,1.4c1.2,0.2,2-0.1,3.3,0
		c0.8,0.1,4.7,0,5.5-0.1c5.6-0.3,7.8,0.2,13.4,0c2.9-0.1,6.5-0.1,9.4-0.2c4.7,0.2,2.7,0.5,6.9,0.1c1.3-0.1,1.8-0.7,1.6-1.6
		C100.3,29.1,100.3,29,100.3,28.8z"/>
	<path class="st1" d="M0.9,7c0.5,5.9,0,12.8,6.2,12.3c8.2-0.7,7.7-8.7,7.4-15.8c0-1.3-3.2-1.1-3,0.2c0.4,5.5,0.3,33.6,0.2,39.1
		c-0.1,4.4-0.3,8.2-1.3,12.5c-0.2,0.6-0.4,1.2-0.6,1.8c-0.3,0.9-1.5,2.3-2.8,2C5.4,58.7,2.7,50.7,3,43.8c0.6-12,9.7-18.7,16.1-16.8
		c4.7,1.4,5.5-1,3.9-1.7C11.9,20.7,1.9,29.7,0.5,39.2c-1.4,9.6,0,19.3,3.2,21.8c1.4,1.1,4.7,1.7,6.1,0.6c4.6-3.4,4.7-12.7,4.7-17.9
		c0-6.2,0.1-33.7,0-40c-0.9,0.1-2.1,0.1-3,0.2c0.3,1.2,0.2,1.7,0.2,3.9c0,1.2-0.1,1.9-0.1,3.1c0.1,2.7-3.6,7.8-6.4,4.2
		C3.6,13.1,4.2,8.9,3.9,4.2C3.9,3.1,2.8,2.5,2.1,2.6c-0.6,0-1.5,0.7-1.4,1.9L0.9,7z"/>
	<g>
		<path class="st1" d="M39.9,10.3c-0.3-2.2-1.1-3.9-3.5-4.4c-5.2-1-6.5,3.9-6.6,6.5c-0.2,3,2.7,6.5,5.6,6.6c4.5,0.2,5-5.2,4.5-8.5
			c-0.2-1.5-3-1.3-2.8,0.2c0.2,1.5,0.6,5.6-1.7,5.7c-1.3,0.1-2.6-1.9-2.6-3.3c0-1.5,0.3-1.9,1-3.1c0.2-0.4,0.8-0.9,1.3-0.9
			c0.3,0,0.9,0,1.2,0.2c0.3,0.2,0.8,0.6,0.9,1.5C37.4,12.7,40.1,11.9,39.9,10.3z"/>
	</g>
	<g>
		<path class="st1" d="M37.3,15.9c-0.3,4.3,0.1,7.4-0.4,11.8c-0.1,1.3-0.7,4.8-2.4,5.9c-1,0.6-1.6,0.9-2.5-1.1
			c-0.8-1.8-0.6-3.3,0.1-5.1c1.5-4,11.6-3.3,15.1-2.1c2.9,1.1,3-1.1,1.4-1.9c-3.1-1.5-8.6-2.6-12.9-1.9c-3.3,0.6-5.7,3.3-6.6,6.1
			c-1.1,3.3,0.3,10.2,4.9,9.6c7.3-0.8,5.8-17,5.9-23.6c0-1.5-2.6-1-2.6,0.5L37.3,15.9z"/>
	</g>
	<g>
		<path class="st1" d="M17.6,15.7c1.3,3.6,5.4,4.1,8,2.6c2.9-1.8,3.1-6.2,1.8-9c-1.4-3.2-5.5-4.1-8.1-2c-2.8,2.2-2.7,6-1.4,8.9
			c0.7,1.5,2.7,0.1,2.2-1.5c-0.4-1.4-0.2-2.1-0.1-3.1c0.2-1.5,2.2-3.2,3.7-2.5c2,1,2.1,3.3,1.7,5c-0.6,2.4-3.9,3.4-5.4,0.6
			C19.2,13.2,17.1,14.1,17.6,15.7L17.6,15.7z"/>
	</g>
	<g>
		<path class="st1" d="M44.8,7.7c2-0.7,3.6,0.1,4.3,1.8c0.6,1.5,0.6,3.5,0.2,5.1c-0.6,2.4-4.7,2.7-4.2-0.3c0.3-2,3-1.5,4.4-1.5
			c1.8,0.1,1.8-2.7,0-2.8c-3.1-0.1-7.2,0.4-7.3,4.5c-0.1,4,3.9,5.8,7.3,4.1c3.2-1.7,3.3-6.3,2.4-9.2c-1.4-4.2-5-5.3-8.7-4
			c-1.7,0.6-0.8,3.2,0.9,2.7L44.8,7.7z"/>
	</g>
	<g>
		<path class="st1" d="M74.5,9.6c2-0.6,4.8-0.3,5.1,2.3c0.2,1.5,0.4,3.2-0.2,4.6c-1,2-4.8,2.2-3.3-0.5c0.8-1.5,2.7-1.9,4.3-2.2
			c1.8-0.3,1-3-0.7-2.7c-3.2,0.5-6.3,2.3-6.8,5.8c-0.6,4,4.8,4.7,7.3,3c2.9-2,2.6-5.5,2.3-8.5c-0.5-4.3-5-5-8.6-3.9
			C72.1,8,72.8,10.1,74.5,9.6L74.5,9.6z"/>
	</g>
	<g>
		<path class="st1" d="M85.1,10.4c0,1.5,0.2,5.1,0.3,8.7c0,0.9,0.8,1.8,1.6,1.8c0.5,0,1.1-0.7,1.2-1.4c0.3-1.7,0.4-4.6,0.7-6.3
			c0.3-1.6,0.6-3.9,2.5-3.6c2.1,0.4,1.6,3.8,1.6,4.9c0,1.5,0.1,3,0,4.5c0,1.1,1.1,1.9,1.9,1.7c0.5-0.1,0.9-1,0.9-1.7
			c0-3.4,1.2-11-3.4-11.7c-5.9-1-6.1,7.6-6.8,11.3c0.9,0.1,1.8,0.2,2.7,0.4c-0.1-3.6,0.1-7.3,0.1-10.9c0-1.8-2.4-1.9-2.8,0
			C85.4,8.2,85.1,8.9,85.1,10.4z"/>
	</g>
	<path class="st0" d="M78.1,0.8c-0.3-0.4-2-0.4-3-0.4c-1.3,0-3.8,0.1-5.1,0.1c-3.4,0-4.4,0-7.8,0c-1.9,0-3.6-0.2-5.5-0.1
		c-0.9,0-0.7,1.1-0.3,1.8c0.5,1,3,0.9,5.2,1c1.2,0,2.2-0.1,3.6,0c0,0.1,0.9,0,0.9,0.1c1.1,0,1.6-0.1,2.8-0.1c0.7,0.1,1.8,0,2.1,0
		c2.5,0.1,2.9,0,5.2-0.3c0.7-0.1,1.9-0.5,1.9-1.2C78.1,1.4,78.1,1,78.1,0.8z"/>
	<path class="st0" d="M65.2,4.8c-0.1,3.5-0.2,10.3,0.1,13.8c0.1,1.6,0.1,2.4,0.6,3c0.4,0.5,1.4,0.7,1.7,0.2c0.4-0.8,0.4-2.5,0.5-3.4
		c0.3-2.1,0.2-9.2,0.3-11.3c0-2.8-0.1-2.3,0-5.1c0,0,0,0,0,0c-1.2,0.1-2.1,0.1-3.1,0.2C65.2,4.6,65.2,3.5,65.2,4.8z"/>
</g>
</svg>
